<svg width="762" height="762" fill="none" xmlns="http://www.w3.org/2000/svg"><g clip-path="url(#prefix__clip0_1223_989)"><g clip-path="url(#prefix__clip1_1223_989)"><path d="M398.413 178.243c43.875 5.685 86.091 22.784 121.579 49.177 7.135 5.615 14.478 10.824 20.905 17.309 27.576 25.499 49.571 56.868 63.957 91.59 10.847 25.882 17.076 53.411 19.304 81.37 7.68.939 15.139 2.482 22.181 5.8 18.028 8.04 31.416 24.293 36.868 43.168 3.051 11.09 4.13 22.912 1.996 34.281-3.434 21.763-15.917 41.914-34.073 54.432-12.691 8.875-28.411 13.956-43.921 13.55-5.952-.058-11.648-1.856-17.553-2.077-2.146 2.518-3.747 5.615-5.522 8.411-21.647 34.363-51.706 63.238-86.59 83.992-32.599 19.408-69.49 31.508-107.263 35.174-12.854.812-25.372 2.378-38.261.859-59.965-2.669-118.412-27.193-162.588-67.785-33.678-30.801-58.98-70.569-72.553-114.143-8.225-26.508-12.321-54.27-11.683-82.031.604-46.799 14.537-93.481 39.374-133.134 22.158-35.743 53.261-65.638 89.561-86.81 34.373-20.047 73.492-32.112 113.214-34.653 17.007-1.705 34.154-.429 51.068 1.52z" fill="#000" stroke="#000" stroke-width="10"/><path fill-rule="evenodd" clip-rule="evenodd" d="M517.672 234.311c-44.652-34.13-101.323-52.796-157.554-51.183-15.162-.14-30.406 1.856-45.256 4.779-46.961 9.432-91.021 32.414-125.442 65.743-29.107 28.052-51.416 63.029-64.235 101.382-17.61 51.717-17.668 108.992-.313 160.779 11.926 35.836 31.938 68.91 58.237 96.022 26.138 26.879 58.064 47.982 93.238 61.021 30.024 11.23 62.158 16.752 94.212 15.917 39.838-.719 79.56-11.415 114.595-30.337 40.558-21.775 74.56-54.896 97.925-94.514a132.462 132.462 0 00-3.453-1.833c-3.266-1.692-6.601-3.42-9.308-5.777-2.529-2.274-.29-6.775 3.132-5.51 1.764.826 3.428 1.837 5.093 2.849 1.772 1.076 3.545 2.154 5.441 3.009 20.603 9.791 45.499 5.952 63.724-7.192 16.683-11.694 28.11-30.697 31.01-50.825 1.067-9.907.974-20.534-2.042-30.104-4.408-14.966-14.153-28.168-27.715-36.033-15.615-9.316-34.989-10.499-51.949-4.269-.852.26-1.749.648-2.666 1.045-1.905.826-3.893 1.687-5.734 1.507-2.981-.325-3.329-4.873-.788-6.068 9.327-4.686 19.13-6.543 29.443-7.401-1.972-24.235-7.111-48.121-15.731-70.871-13.608-36.044-35.499-68.898-63.725-95.152-1.393-1.272-2.762-2.56-4.127-3.843-5.043-4.743-10.032-9.434-16.012-13.141zm124.804 227.613c2.413-1.369 1.474-5.893-1.577-5.777-2.443.095-4.917.984-7.276 1.832-.52.187-1.034.372-1.541.546-9.965 3.619-21.23 7.819-29.664 14.362-2.471 2.192-2.529 5.116.186 7.111 1.853 1.117 3.928 2.186 6.062 3.284 5.629 2.899 11.663 6.006 15.086 10.742-.244 2.088-2.402 3.878-3.98 5.187l-.208.173c-4.544 3.479-10.243 5.834-15.812 8.136-2.861 1.183-5.688 2.351-8.306 3.65-1.891.882-3.005 2.471-1.822 4.49 1.191 2.309 3.762 1.331 5.745.577.258-.098.506-.192.74-.275 2.042-.916 4.174-1.788 6.331-2.671 6.262-2.563 12.731-5.211 17.788-9.232 3.155-2.483 6.021-5.917 6.322-10.081-.556-4.003-3.19-6.625-6.183-9.049-4.093-3.211-8.888-5.818-13.491-8.32l-1.254-.683c6.265-3.434 12.599-6.589 19.351-8.956 1.85-.765 3.764-1.401 5.677-2.037 2.667-.886 5.333-1.773 7.826-3.009z" fill="#BC8762" stroke="#000" stroke-width="10"/><path d="M263.307 461.982c3.249 1.578 2.564 5.128.163 7.181-12.564 11.566-29.351 18.898-46.08 21.81-9.025 1.148-17.517 2.668-26.624 1.299-16.033-1.23-31.636-5.916-45.256-14.536-2.494-1.624-5.417-3.364-7.181-5.8-.719-2.935.835-4.502 3.643-4.85 3.144.325 6.299 1.566 9.374 2.355 8.77 2.471 17.656 3.515 26.694 4.397 24.872 1.833 50.673-.998 74.42-8.735 3.411-.905 7.309-3.446 10.847-3.121zM471.326 449.638c1.021.43 2.042.87 3.051 1.311a49.876 49.876 0 01-.545 3.457c-2.564 4.467-6.88 8.04-10.441 11.729-6.787 5.801-14.212 10.986-22.228 14.942-16.299 8.132-35.07 11.462-53.179 9.745-22.564-1.903-44.583-11.392-62.89-24.478-1.612-1.311-3.329-2.297-2.853-4.687.614-2.877 4.594-3.84 7.088-2.842 24.606 7.285 49.455 7.796 74.885 6.322 18.863-1.798 37.193-4.953 55.128-11.23 4.107-1.403 7.865-3.236 11.984-4.269z" fill="#000" stroke="#000" stroke-width="5" stroke-linejoin="round"/><path d="M411.673 361.668c-.696-3.388-2.877-5.65-5.336-7.912-13.898-12.703-34.664-18.411-52.948-13.434-11.276 2.784-21.473 9.698-27.413 19.791-3.283 5.835-5.545 12.228-4.617 19.026.093.485.151.962.208 1.421.234 1.901.43 3.496 2.831 4.112 2.512.144 5.108-.335 7.587-.792l.36-.066c2.405-.474 4.812-.934 7.218-1.395 6.079-1.164 12.155-2.327 18.188-3.698 17.483-3.689 34.896-7.912 52.066-12.854 2.051-.294 1.969-1.876 1.886-3.503-.012-.233-.024-.466-.03-.696zM251.184 390.775c-.94-11.369-10.313-20.198-20.743-23.562-15.371-4.664-32.866-.51-44.478 10.592-5.163 4.849-9.733 11.566-10.58 18.724-.093 3.177 2.741 3.228 5.147 3.272.308.005.61.011.897.023 3.503-.097 7.014-.163 10.527-.229 10.834-.204 21.697-.408 32.455-1.512 2.794-.248 5.598-.438 8.403-.628 4.938-.335 9.878-.67 14.776-1.321 2.807.035 3.805-3.016 3.596-5.359z" fill="#000"/><path d="M411.673 361.668c-.696-3.388-2.877-5.65-5.336-7.912-13.898-12.703-34.664-18.411-52.948-13.434-11.276 2.784-21.473 9.698-27.413 19.791-3.283 5.835-5.545 12.228-4.617 19.026.093.485.151.962.208 1.421.234 1.901.43 3.496 2.831 4.112 2.512.144 5.108-.335 7.587-.792l.36-.066c2.405-.474 4.812-.934 7.218-1.395 6.079-1.164 12.155-2.327 18.188-3.698 17.483-3.689 34.896-7.912 52.066-12.854 2.051-.294 1.969-1.876 1.886-3.503-.012-.233-.024-.466-.03-.696zM251.184 390.775c-.94-11.369-10.313-20.198-20.743-23.562-15.371-4.664-32.866-.51-44.478 10.592-5.163 4.849-9.733 11.566-10.58 18.724-.093 3.177 2.741 3.228 5.147 3.272.308.005.61.011.897.023 3.503-.097 7.014-.163 10.527-.229 10.834-.204 21.697-.408 32.455-1.512 2.794-.248 5.598-.438 8.403-.628 4.938-.335 9.878-.67 14.776-1.321 2.807.035 3.805-3.016 3.596-5.359z" stroke="#000" stroke-width="5" stroke-linejoin="round"/><path d="M361.313 544.628c.476.905.928 1.821 1.323 2.749.545 3.086-2.263 3.84-4.42 5.035-4.618 2.053-9.339 3.944-14.061 5.777-20.487 7.332-41.056 12.889-62.924 13.852-7.541.58-15.012.719-22.552.046-5.685-.661-11.776-.731-17.251-2.355-2.726-1.021-3.167-4.559-.464-5.881 3.109-.14 6.357.963 9.489 1.183 8.353 1.032 16.59.708 24.989.708 26.091-.882 52.228-7.877 76.219-17.959 3.202-1.38 6.056-3.005 9.652-3.155z" fill="#000" stroke="#000" stroke-width="7.5" stroke-linejoin="round"/><path fill-rule="evenodd" clip-rule="evenodd" d="M457.567 373.083c7.176-.175 14.348-.194 21.52-.213 5.2-.013 10.401-.027 15.603-.1.653.005 1.308.007 1.964.009 3.604.012 7.255.023 10.797.582 2.994.615 6.509 2.251 7.066 5.604 1.055 5.928.533 13.967-1.323 19.71-.534 2.053-2.019 2.436-3.886 2.715-4.016.417-8.058.66-12.092.902-1.454.087-2.908.174-4.359.269.142 4.966.441 10.019.741 15.103v.001c.803 13.596 1.619 27.411-.509 40.372-1.009 8.666-3.457 17.228-6.647 25.326-3.608 9.918-10.545 18.782-17.889 26.241-11.404 12.019-25.812 21.334-41.996 25.302-12.587 2.773-25.719 3.457-38.55 2.506-10.696-1.833-21.81-4.49-31.392-9.745-12.193-7.019-21.428-17.46-28.748-29.339-9.478-14.641-13.805-31.532-17.947-48.249-.597-2.538-.979-5.161-1.362-7.785-.48-3.289-.959-6.58-1.863-9.709-.557-2.065-3.062-3.562-4.837-4.525-7.785-3.898-19.038-1.09-22.031 7.657-.579 3.295-.642 6.667-.705 10.047-.061 3.32-.123 6.647-.675 9.918-2.309 15.117-5.534 30.326-12.251 44.154-6.439 13.434-13.573 25.557-26.068 34.223-14.942 9.003-32.877 15.592-50.545 13.829-7.959-.174-16.3-1.636-23.62-4.792-7.97-4.304-16.01-9.408-21.856-16.427-11.973-14.246-19.664-32.135-24.119-50.081-2.169-7.924-3.527-16.022-3.446-24.258-1.899.282-3.791.65-5.683 1.018-2.776.539-5.553 1.079-8.354 1.348-2.599.256-4.942-.8-6.218-3.12-2.274-4.362-2.854-9.722-2.053-14.536.047-.202.09-.411.134-.621.269-1.291.556-2.674 1.873-3.243 31.821-14.57 64.896-23.898 99.165-30.684 13.04-2.68 26.068-4.42 39.421-3.562 11.636.012 23.179 2.738 33.48 8.179 12.518 5.58 28.435 6.276 40.778-.139 3.527-1.72 5.723-4.266 8.035-6.945 1.384-1.604 2.81-3.256 4.587-4.807 11.381-10.534 26.787-15.383 41.903-17.158 15.207-2.762 30.464-3.5 45.851-4.245l2.897-.14c6.431-.174 12.87-.174 19.31-.174 8.639.001 17.279.001 25.899-.418zm-26.682 7.262c9.675-.394 18.932-.522 28.016 3.364.75.351 1.583.694 2.451 1.052 3.671 1.512 7.959 3.278 9.15 6.918 6.74 14.374 9.536 30.813 9.733 46.602.65 14.432-1.009 29.583-6.044 43.179-4.304 11.357-12.181 19.849-21.172 27.703-6.044 5.012-13.48 8.689-20.626 11.857-10.615 4.443-22.39 7.888-34.003 7.134-6.72-.397-13.408-2.064-19.945-3.693l-1.007-.251c-6.914-1.701-12.396-5.293-18.213-9.104l-.549-.359-.449-.294c-7.889-5.267-14.188-12.134-19.814-19.698-3.209-4.564-5.296-10.058-7.313-15.37l-.001-.004c-.47-1.236-.935-2.462-1.41-3.664-5.383-13.851-6.938-28.48-6.81-43.248.104-8.98 1.392-19.652 6.392-27.321 5.951-7.494 13.921-14.199 22.993-17.494 10.754-3.248 22.193-4.931 33.388-5.754 13.425-1.484 26.877-1.513 40.202-1.541h.006c1.677-.004 3.352-.007 5.025-.014zm-199.949 25.591a154.727 154.727 0 01-3.081-.092c-9.991-1.011-20.71 1.09-30.739 3.056-1.361.266-2.709.531-4.041.784-2.657.599-5.303 1.167-7.939 1.733-10.897 2.341-21.608 4.641-32.108 8.882-1.048.419-2.13.827-3.227 1.241-6.689 2.522-13.933 5.254-17.342 11.822-5.613 11.447-4.328 22.752-2.966 34.722.143 1.264.288 2.536.425 3.817 2.239 13.654 7.924 26.972 15.244 38.666 5.87 9.292 12.645 17.494 22.53 22.703 14.826 8.237 32.424 7.135 48.028 1.822 13.179-5.14 25.244-11.393 33.132-23.643 10.256-16.288 16.149-35.558 17.947-54.664 1.056-10.882-.116-21.845-3.109-32.344-.533-1.613-1.137-3.388-2.192-4.745-6.021-6.497-13.458-11.45-22.263-13.167-2.706-.465-5.518-.53-8.299-.593z" fill="#000"/><path d="M479.087 372.87l-.006-2.5.006 2.5zm-21.52.213l-.061-2.499h-.03l-.03.002.121 2.497zm37.123-.313l.021-2.5h-.056l.035 2.5zm1.964.009l.008-2.5-.008 2.5zm10.797.582l.504-2.448-.057-.012-.057-.009-.39 2.469zm7.066 5.604l-2.467.409.003.015.002.014 2.462-.438zm-1.323 19.71l-2.379-.769-.022.069-.019.071 2.42.629zm-3.886 2.715l.258 2.486.055-.006.055-.008-.368-2.472zm-12.092.902l-.149-2.496-.029.002-.029.002.207 2.492zm0 0l.15 2.495.029-.002.029-.002-.208-2.491zm-4.359.269l-.164-2.494-2.404.158.069 2.408 2.499-.072zm.741 15.103l-2.496.147.002.035.003.034 2.491-.216zm0 .001l2.496-.148-.002-.034-.003-.035-2.491.217zm-.509 40.372l-2.467-.405-.009.058-.007.058 2.483.289zm-6.647 25.326l-2.326-.917-.012.031-.011.031 2.349.855zm-17.889 26.241l-1.781-1.754-.017.017-.015.016 1.813 1.721zm-41.996 25.302l.538 2.441.029-.006.029-.007-.596-2.428zm-38.55 2.506l-.422 2.464.118.02.119.009.185-2.493zm-31.392-9.745l-1.248 2.167.023.013.022.012 1.203-2.192zm-28.748-29.339l2.129-1.312-.015-.023-.015-.024-2.099 1.359zm-17.947-48.249l-2.433.573.003.014.004.014 2.426-.601zm-1.362-7.785l-2.474.36 2.474-.36zm-1.863-9.709l-2.413.651.005.021.006.021 2.402-.693zm-4.837-4.525l1.192-2.197-.036-.02-.037-.018-1.119 2.235zm-22.031 7.657l-2.365-.809-.063.184-.034.192 2.462.433zm-.705 10.047l-2.499-.047 2.499.047zm-.675 9.918l-2.465-.415-.004.019-.003.019 2.472.377zm-12.251 44.154l-2.249-1.092-.005.012 2.254 1.08zm-26.068 34.223l1.291 2.142.068-.042.066-.046-1.425-2.054zm-50.545 13.829l.248-2.488-.097-.01-.097-.002-.054 2.5zm-23.62-4.792l-1.188 2.2.097.052.101.044.99-2.296zm-21.856-16.427l1.92-1.6-.007-.008-1.913 1.608zm-24.119-50.081l2.426-.603-.007-.029-.008-.029-2.411.661zm-3.446-24.258l2.5.024.029-2.927-2.896.43.367 2.473zm-5.683 1.018l.447 2.459.015-.002.015-.003-.477-2.454zm0 0l-.448-2.46-.015.003-.015.003.478 2.454zm-8.354 1.348l-.239-2.488h-.005l.244 2.488zm-6.218-3.12l-2.217 1.155.013.025.014.024 2.19-1.204zm-2.053-14.536l-2.435-.57-.018.079-.014.081 2.467.41zm.134-.621l-2.448-.51 2.448.51zm1.873-3.243l.99 2.296.026-.011.024-.012-1.04-2.273zm99.165-30.684l.486 2.452.009-.002.009-.002-.504-2.448zm39.421-3.562l-.161 2.495.079.005h.079l.003-2.5zm33.48 8.179l-1.167 2.211.073.038.076.034 1.018-2.283zm40.778-.139l-1.096-2.247-.028.014-.029.014 1.153 2.219zm8.035-6.945l1.893 1.634-1.893-1.634zm4.587-4.807l1.644 1.883.028-.024.026-.024-1.698-1.835zm41.903-17.158l.292 2.483.078-.009.077-.014-.447-2.46zm45.851-4.245l-.121-2.497.121 2.497zm2.897-.14l-.068-2.499h-.027l-.027.002.122 2.497zm19.31-.174v-2.5 2.5zm27.233 10.208l1.059-2.264-.038-.018-.038-.016-.983 2.298zm-28.016-3.364l.009 2.5h.046l.046-.002-.101-2.498zm30.467 4.416l-.952 2.311.952-2.311zm9.15 6.918l-2.376.778.048.145.065.139 2.263-1.062zm9.733 46.602l-2.499.031v.041l.002.04 2.497-.112zm-6.044 43.179l2.338.886.003-.009.004-.009-2.345-.868zm-21.172 27.703l1.596 1.925.025-.021.024-.021-1.645-1.883zm-20.626 11.857l.965 2.306.024-.01.024-.011-1.013-2.285zm-34.003 7.134l.162-2.495h-.007l-.008-.001-.147 2.496zm-19.945-3.693l.605-2.426-.605 2.426zm-1.007-.251l.604-2.426-.006-.002-.598 2.428zm-18.213-9.104l1.37-2.091-1.37 2.091zm-.549-.359l1.369-2.092-1.369 2.092zm-.449-.294l-1.388 2.079.01.007.011.007 1.367-2.093zm-19.814-19.698l-2.046 1.438.02.027.02.027 2.006-1.492zm-7.313-15.37l2.337-.888-.008-.02-.008-.02-2.321.928zm0 0l-2.346.864.012.032.013.032 2.321-.928zm-.001-.004l2.345-.864-.004-.012-.004-.012-2.337.888zm-1.41-3.664l-2.331.906.003.007.003.006 2.325-.919zm-6.81-43.248l-2.5-.029v.007l2.5.022zm6.392-27.321l-1.958-1.554-.072.091-.064.098 2.094 1.365zm22.993-17.494l-.723-2.393-.066.02-.064.023.853 2.35zm33.388-5.754l.183 2.493.046-.003.046-.005-.275-2.485zm40.202-1.541l.005 2.5h.005l-.01-2.5zm.006 0l-.006-2.5h-.004l.01 2.5zm-198.005 25.485l-.252 2.488.072.007.072.003.108-2.498zm3.081.092l.057-2.5-.057 2.5zm-33.82 2.964l.48 2.453-.48-2.453zm-4.041.784l-.468-2.456-.041.008-.041.009.55 2.439zm-7.939 1.733l.525 2.445-.525-2.445zm-32.108 8.882l.927 2.322.009-.004-.936-2.318zm-3.227 1.241l-.882-2.34.882 2.34zm-17.342 11.822l-2.219-1.152-.013.026-.013.025 2.245 1.101zm-2.966 34.722l-2.484.282 2.484-.282zm.425 3.817l-2.485.267.007.069.011.068 2.467-.404zm15.244 38.666l-2.119 1.327.006.008 2.113-1.335zm22.53 22.703l1.214-2.185-.025-.014-.024-.012-1.165 2.211zm48.028 1.822l.806 2.366.051-.017.051-.02-.908-2.329zm33.132-23.643l2.102 1.353.007-.01.007-.011-2.116-1.332zm17.947-54.664l-2.488-.242-.001.007 2.489.235zm-3.109-32.344l2.404-.686-.014-.05-.016-.05-2.374.786zm-2.192-4.745l1.973-1.535-.066-.085-.074-.079-1.833 1.699zm-22.263-13.167l.479-2.454-.028-.005-.027-.005-.424 2.464zm239.846-36.159c-7.168.019-14.367.038-21.575.214l.122 4.998c7.144-.174 14.289-.193 21.466-.212l-.013-5zm15.574-.1c-5.186.073-10.372.087-15.574.1l.013 5c5.198-.013 10.412-.027 15.631-.1l-.07-5zm2.007.009c-.658-.002-1.306-.004-1.951-.009l-.041 5c.66.005 1.321.007 1.976.009l.016-5zm11.179.613c-3.765-.594-7.61-.602-11.179-.613l-.016 5c3.639.012 7.095.028 10.416.552l.779-4.939zm9.142 7.663c-.42-2.529-1.961-4.31-3.674-5.482-1.684-1.152-3.655-1.811-5.354-2.16l-1.007 4.897c1.294.266 2.577.732 3.538 1.39.932.638 1.428 1.351 1.564 2.174l4.933-.819zm-1.41 20.889c1.984-6.138 2.531-14.593 1.405-20.918l-4.923.877c.985 5.531.489 13.156-1.24 18.503l4.758 1.538zm-5.897 4.418c.919-.137 2.196-.348 3.324-.998 1.295-.747 2.191-1.935 2.614-3.56l-4.84-1.258c-.066.255-.135.361-.159.393a.323.323 0 01-.113.093c-.214.124-.614.243-1.563.385l.737 4.945zm-12.31.925c4.025-.241 8.121-.486 12.2-.911l-.517-4.973c-3.953.411-7.939.651-11.982.893l.299 4.991zm.058-.004l-.415-4.983h-.001l.416 4.983zm-4.403.273c1.443-.095 2.889-.182 4.345-.269l-.3-4.991c-1.453.087-2.913.175-4.373.271l.328 4.989zm3.073 12.46c-.301-5.09-.597-10.105-.738-15.026l-4.998.143c.144 5.01.445 10.101.744 15.178l4.992-.295zm-.005-.068v-.001l-4.982.433.001.001 4.981-.433zm-.533 40.994c2.181-13.284 1.337-27.386.538-40.925l-4.992.295c.807 13.654 1.595 27.183-.48 39.82l4.934.81zm-6.788 25.837c3.248-8.244 5.764-17.019 6.805-25.952l-4.967-.579c-.978 8.399-3.357 16.747-6.49 24.698l4.652 1.833zm-18.433 27.079c7.454-7.573 14.672-16.737 18.456-27.141l-4.698-1.709c-3.432 9.434-10.089 17.996-17.321 25.342l3.563 3.508zm-43.182 25.976c16.728-4.101 31.541-13.707 43.214-26.009l-3.627-3.442c-11.135 11.735-25.139 20.761-40.778 24.595l1.191 4.856zm-39.331 2.571c13.039.967 26.418.274 39.273-2.558l-1.075-4.882c-12.319 2.713-25.206 3.39-37.828 2.454l-.37 4.986zm-32.41-10.046c9.956 5.46 21.402 8.171 32.173 10.017l.844-4.928c-10.622-1.82-21.403-4.422-30.612-9.473l-2.405 4.384zm-29.673-30.22c7.464 12.114 16.97 22.908 29.628 30.195l2.495-4.334c-11.728-6.751-20.69-16.838-27.866-28.484l-4.257 2.623zm-18.245-48.959c4.128 16.665 8.535 33.962 18.275 49.007l4.197-2.718c-9.217-14.236-13.464-30.722-17.619-47.491l-4.853 1.202zm-1.41-8.026c.38 2.605.777 5.336 1.403 7.998l4.867-1.145c-.568-2.416-.937-4.931-1.322-7.574l-4.948.721zm-1.791-9.376c.848 2.937 1.307 6.057 1.791 9.376l4.948-.721c-.475-3.258-.976-6.72-1.935-10.042l-4.804 1.387zm-3.627-3.02c.865.469 1.758.991 2.482 1.585.756.619 1.054 1.098 1.134 1.393l4.827-1.302c-.477-1.771-1.71-3.072-2.791-3.958-1.112-.912-2.359-1.62-3.268-2.113l-2.384 4.395zm-18.473 6.268c1.19-3.479 4.045-5.876 7.603-6.994 3.584-1.127 7.669-.875 10.942.764l2.239-4.471c-4.511-2.259-9.945-2.552-14.681-1.063-4.763 1.497-9.032 4.878-10.834 10.146l4.731 1.618zm-.571 9.284c.063-3.414.128-6.589.667-9.66l-4.924-.866c-.619 3.519-.68 7.087-.742 10.433l4.999.093zm-.71 10.288c.588-3.485.649-7 .71-10.288l-4.999-.093c-.063 3.352-.126 6.493-.641 9.55l4.93.831zm-12.467 44.83c6.885-14.174 10.154-29.684 12.473-44.868l-4.943-.755c-2.298 15.048-5.479 29.956-12.028 43.439l4.498 2.184zm-26.892 35.185c13.051-9.051 20.416-21.674 26.897-35.196l-4.508-2.161c-6.397 13.345-13.3 24.969-25.238 33.249l2.849 4.108zm-52.219 14.262c18.42 1.839 36.907-5.03 52.085-14.174l-2.581-4.283c-14.707 8.86-32.09 15.17-49.007 13.482l-.497 4.975zm-24.361-4.983c7.679 3.31 16.351 4.816 24.555 4.995l.109-4.999c-7.712-.168-15.722-1.586-22.684-4.587l-1.98 4.591zm-22.787-17.123c6.163 7.399 14.552 12.687 22.589 17.027l2.376-4.399c-7.903-4.268-15.593-9.189-21.124-15.828l-3.841 3.2zm-24.624-51.079c4.517 18.198 12.345 36.469 24.631 51.088l3.827-3.217c-11.658-13.873-19.213-31.38-23.606-49.076l-4.852 1.205zm-3.519-24.885c-.084 8.527 1.321 16.861 3.534 24.943l4.822-1.321c-2.126-7.765-3.435-15.626-3.357-23.573l-4.999-.049zm-2.707 3.497c1.901-.37 3.739-.727 5.574-.999l-.735-4.946c-1.964.292-3.91.671-5.793 1.037l.954 4.908zm-.03.005l-.894-4.919h-.001l.895 4.919zm-8.562 1.378c2.941-.283 5.836-.847 8.592-1.383l-.955-4.908c-2.796.543-5.454 1.058-8.115 1.314l.478 4.977zm-8.647-4.405c1.816 3.303 5.186 4.745 8.653 4.404l-.489-4.976c-1.73.17-3.048-.5-3.783-1.837l-4.381 2.409zm-2.33-16.15c-.873 5.254-.263 11.18 2.303 16.101l4.434-2.311c-1.982-3.802-2.532-8.596-1.804-12.97l-4.933-.82zm.153-.721c-.045.217-.082.395-.12.561l4.868 1.139c.055-.237.105-.476.148-.681l-4.896-1.019zm3.33-5.028c-1.359.587-2.146 1.608-2.604 2.588-.415.889-.604 1.856-.726 2.44l4.896 1.019c.07-.335.124-.595.188-.837a3.09 3.09 0 01.172-.506c.05-.105.08-.135.075-.13-.012.012-.028.02-.02.017l-1.981-4.591zm99.671-30.842c-34.395 6.812-67.67 16.188-99.721 30.864l2.081 4.546c31.592-14.465 64.467-23.743 98.611-30.505l-.971-4.905zm40.066-3.604c-13.668-.878-26.942.907-40.084 3.608l1.007 4.897c12.937-2.658 25.719-4.353 38.756-3.515l.321-4.99zm34.488 8.463c-10.678-5.64-22.624-8.456-34.646-8.468l-.005 5c11.25.011 22.391 2.647 32.316 7.89l2.335-4.422zm38.457-.147c-11.542 5.999-26.645 5.407-38.607.074l-2.036 4.567c13.074 5.828 29.804 6.628 42.949-.204l-2.306-4.437zm7.295-6.359c-2.339 2.711-4.233 4.865-7.238 6.331l2.192 4.494c4.048-1.974 6.547-4.911 8.832-7.558l-3.786-3.267zm4.836-5.058c-1.929 1.685-3.463 3.468-4.836 5.058l3.786 3.267c1.396-1.618 2.713-3.14 4.338-4.558l-3.288-3.767zm43.255-17.757c-15.392 1.807-31.389 6.773-43.309 17.806l3.396 3.67c10.842-10.035 25.657-14.768 40.497-16.51l-.584-4.966zm46.022-4.259c-15.36.743-30.782 1.486-46.177 4.282l.894 4.92c15.018-2.728 30.112-3.462 45.525-4.208l-.242-4.994zm2.896-.14l-2.896.14.242 4.994 2.898-.14-.244-4.994zm19.432-.177c-6.434 0-12.907 0-19.378.175l.135 4.998c6.392-.173 12.798-.173 19.243-.173v-5zm25.778-.415c-8.55.415-17.129.416-25.778.415v5c8.629.001 17.329.001 26.02-.421l-.242-4.994zm2.438 10.825c-9.661-4.134-19.447-3.957-29.101-3.564l.203 4.996c9.696-.395 18.426-.474 26.932 3.165l1.966-4.597zm2.421 1.038c-.881-.363-1.658-.683-2.345-1.004l-2.118 4.529c.813.38 1.703.746 2.558 1.098l1.905-4.623zm10.573 8.453c-.846-2.584-2.742-4.337-4.664-5.58-1.907-1.232-4.118-2.135-5.909-2.873l-1.905 4.623c1.879.774 3.647 1.511 5.1 2.45 1.437.928 2.28 1.879 2.626 2.935l4.752-1.555zm9.857 47.348c-.2-16.039-3.038-32.851-9.969-47.632l-4.527 2.123c6.549 13.967 9.302 30.032 9.497 45.571l4.999-.062zm-6.199 44.078c5.177-13.98 6.858-29.479 6.197-44.16l-4.995.225c.638 14.183-.999 28.986-5.891 42.199l4.689 1.736zm-21.872 28.718c9.098-7.947 17.343-16.768 21.865-28.7l-4.676-1.772c-4.086 10.783-11.595 18.946-20.478 26.706l3.289 3.766zm-21.258 12.259c7.178-3.181 14.883-6.972 21.209-12.217l-3.191-3.849c-5.763 4.778-12.93 8.342-20.044 11.495l2.026 4.571zm-35.178 7.344c12.18.791 24.378-2.823 35.13-7.323l-1.931-4.613c-10.477 4.386-21.83 7.664-32.875 6.946l-.324 4.99zm-20.387-3.763c6.495 1.619 13.41 3.35 20.401 3.764l.295-4.992c-6.448-.381-12.909-1.984-19.487-3.623l-1.209 4.851zm-1.006-.25l1.006.25 1.209-4.851-1.008-.251-1.207 4.852zm-18.98-9.438c5.77 3.78 11.594 7.621 18.986 9.439l1.195-4.855c-6.437-1.583-11.577-4.925-17.441-8.767l-2.74 4.183zm-.549-.36l.549.36 2.74-4.183-.55-.36-2.739 4.183zm-.446-.292l.447.292 2.738-4.183-.45-.294-2.735 4.185zm-20.453-20.299c5.722 7.692 12.219 14.802 20.432 20.285l2.776-4.158c-7.564-5.05-13.665-11.676-19.197-19.111l-4.011 2.984zm-7.644-15.974c1.994 5.251 4.183 11.054 7.604 15.92l4.091-2.876c-2.996-4.261-4.981-9.448-7.021-14.82l-4.674 1.776zm.016.04l4.642-1.856v-.001l-4.642 1.857zm-.026-.068l.001.004 4.692-1.729-.002-.003-4.691 1.728zm-1.389-3.609a298.09 298.09 0 011.397 3.633l4.675-1.776c-.469-1.233-.94-2.474-1.422-3.695l-4.65 1.838zm-6.985-44.189c-.129 14.946 1.44 29.922 6.979 44.176l4.661-1.811c-5.227-13.449-6.766-27.731-6.64-42.322l-5-.043zm6.798-28.664c-5.411 8.297-6.693 19.587-6.798 28.657l5 .058c.103-8.889 1.396-18.945 5.986-25.984l-4.188-2.731zm24.234-18.479c-9.626 3.496-17.95 10.547-24.098 18.29l3.916 3.109c5.754-7.247 13.37-13.606 21.889-16.699l-1.707-4.7zm34.058-5.898c-11.309.833-22.942 2.536-33.928 5.855l1.446 4.786c10.523-3.178 21.767-4.839 32.848-5.654l-.366-4.987zm40.38-1.547c-13.304.028-26.891.055-40.472 1.556l.55 4.97c13.268-1.467 26.585-1.498 39.932-1.526l-.01-5zm.001 0h-.006l.02 5h.006l-.02-5zm5.025-.014c-1.67.007-3.343.01-5.021.014l.011 5c1.677-.004 3.354-.007 5.029-.014l-.019-5zm-203.128 30.497c1.048.045 2.102.069 3.132.093l.114-4.999c-1.038-.024-2.042-.047-3.031-.089l-.215 4.995zm-30.151 3.011c10.112-1.982 20.453-3.989 30.007-3.021l.503-4.975c-10.426-1.055-21.523 1.139-31.471 3.089l.961 4.907zm-4.054.787c1.34-.255 2.695-.521 4.054-.787l-.961-4.907c-1.362.267-2.704.53-4.028.782l.935 4.912zm-7.881 1.722c2.634-.566 5.292-1.137 7.963-1.739l-1.099-4.878a768.641 768.641 0 01-7.914 1.728l1.05 4.889zm-31.697 8.755c10.268-4.147 20.768-6.408 31.697-8.755l-1.05-4.889c-10.865 2.334-21.787 4.673-32.52 9.008l1.873 4.636zm-3.281 1.262c1.093-.412 2.198-.829 3.272-1.258l-1.854-4.643c-1.022.407-2.081.807-3.182 1.222l1.764 4.679zm-16.005 10.635c2.89-5.569 9.096-8.03 16.005-10.635l-1.764-4.679c-6.469 2.44-14.752 5.443-18.679 13.01l4.438 2.304zm-2.701 33.287c-1.373-12.066-2.518-22.642 2.727-33.338l-4.49-2.202c-5.981 12.199-4.556 24.232-3.205 36.105l4.968-.565zm.427 3.833c-.138-1.29-.284-2.569-.427-3.833l-4.968.565c.144 1.266.287 2.53.424 3.802l4.971-.534zm14.877 37.606c-7.185-11.478-12.721-24.486-14.895-37.744l-4.935.809c2.304 14.051 8.137 27.68 15.592 39.589l4.238-2.654zm21.576 21.819c-9.321-4.912-15.809-12.69-21.581-21.827l-4.227 2.67c5.968 9.447 13.03 18.074 23.477 23.58l2.331-4.423zm46.057 1.666c-15.229 5.186-32.028 6.127-46.008-1.64l-2.429 4.371c15.672 8.706 34.071 7.443 50.049 2.002l-1.612-4.733zm31.837-22.63c-7.443 11.558-18.871 17.571-31.939 22.667l1.816 4.659c13.29-5.183 25.991-11.675 34.326-24.619l-4.203-2.707zm17.559-53.545c-1.766 18.773-7.555 37.655-17.573 53.567l4.231 2.664c10.492-16.664 16.491-36.321 18.32-55.762l-4.978-.469zm-3.024-31.424c2.915 10.225 4.048 20.873 3.025 31.417l4.977.483c1.088-11.22-.122-22.497-3.194-33.271l-4.808 1.371zm-1.762-3.895c.748.961 1.236 2.313 1.793 3.995l4.747-1.571c-.511-1.542-1.229-3.74-2.593-5.494l-3.947 3.07zm-20.767-12.248c8.156 1.59 15.145 6.196 20.907 12.412l3.667-3.398c-6.28-6.777-14.163-12.078-23.617-13.922l-.957 4.908zm-7.878-.548c2.815.064 5.439.129 7.933.558l.847-4.928c-2.92-.502-5.919-.566-8.666-.629l-.114 4.999z" fill="#000"/><path d="M371.776 43.01c6.555.615 13.179 3.863 17.042 9.316 5.023 6.856 7.436 15.986 9.478 24.13 3.237 14.524 5.627 29.35 7.947 44.026 11.218-18.991 18.19-38.19 33.829-54.7 5.997-6.31 14.93-8.514 23.318-9.21 9.35.15 19.385 3.816 28.364 6.299 6.543 1.914 13.527 3.875 19.42 7.367 4.699 2.819 7.506 7.552 8.052 12.97 1.403 17.819-4.42 32.436-10.047 48.817 16.288-9.385 33.98-17.077 52.228-21.659 7.367-1.52 15.244-.163 21.288 4.443 6.763 5.081 12.993 11.195 17.657 18.283 2.552 3.91 4.408 8.016 4.025 12.819-.58 9.409-5.441 18.806-9.211 27.379-3.063 7.03-6.972 13.527-11.241 19.884 7.819-1.288 15.487-3.248 23.283-4.64 7.227-1.358 15.499-3.365 22.738-1.416 6.775 1.856 11.706 8.121 14.861 14.084 4.234 8.817 7.065 18.376 9.316 27.877.951 4.084 1.334 8.051-.569 11.938-3.086 6.624-9.176 10.278-15.313 13.689-5.198 2.749-10.082 5.986-14.966 9.269 5.267.87 11.984 1.624 16.323 4.977 4.687 3.84 4.652 10.673 4.629 16.195-.058 6.334-1.346 12.46-6.462 16.671-6.636 5.244-15.708 7.146-23.898 8.179 4.872 10.058 8.202 21.032 10.673 31.902 4.083 18.272 5.916 37.089 5.998 55.79-.638 8.329-.476 17.227-2.866 25.267-3.062 1.856-7.68.128-11.195.8-8.202 1.103-16.74 3.005-24.327 6.393-4.119 1.74-6.288 5-9.211 8.19-4.826 5.626-10.024 10.905-14.792 16.578-2.343 2.645-4.582 5.545-7.285 7.831-2.309 2.331-7.262-.464-7.054-3.516-.208-11.543.372-23.016-.789-34.571-2.157-22.738-7.146-46.381-17.088-67.054-5.441-11.125-13.144-22.9-23.817-29.594-4.617-3.016-9.687-3.991-15.046-4.756-2.274-.267-3.632-2.344-2.912-4.513 1.45-4.084 4.072-7.819 6.404-11.462 7.505-10.986 15.916-21.358 25.383-30.72-26.694-8.445-53.887-12.506-81.718-14.814-40.43-3.225-80.906-2.448-121.289 1.102-40.407 3.805-81.115 10.36-120.187 21.508-17.993 5.174-35.488 11.427-52.356 19.583-2.343 1.195-4.385 2.761-6.519 4.269-.662.615-1.578.638-2.75.07-1.775-1.451-1.09-4.409-.742-6.346a165.94 165.94 0 017.413-23.121c-12.379-4.803-24.536-10.151-37.054-14.559-7.193-2.669-14.733-5.604-19.977-11.451-3.944-4.269-5.661-9.582-6.52-15.232-1.241-8.132-1.717-17.401.963-25.29 2.181-6.334 7.471-11.079 13.829-13.005 9.269-2.784 18.584-3.028 28.179-2.448-5.128-6.415-12.831-13.48-14.189-21.833-.881-6.972 3.852-14.606 7.924-19.954 5-6.589 10.627-13.805 17.436-18.585 5.29-3.526 11.532-2.784 17.228-.73 18.364 6.601 36.021 15.812 51.625 27.552-6.822-12.39-12.379-25.511-17.251-38.771-1.972-5.603-3.341-12.297-.047-17.68 7.216-12.61 19.305-22.517 31.694-29.78 5.302-2.993 10.465-5.591 16.776-4.547 5 1.01 9.698 4.443 13.828 7.32 15.07 11.08 28.028 25.256 39.85 39.676 1.067-14.351-.348-27.82 2.656-42.124 1.601-7.633 5.406-15.093 11.52-20.093 5.116-4.35 11.891-6.334 18.179-8.376 6.357-2.088 12.819-2.784 19.397-3.828 9.397-1.404 18.364-2.726 27.935-2.065z" fill="#000"/><path d="M583.159 446.065c.893 2.402.685 3.481-.847 5.511-4.71 6.067-10.058 11.636-14.838 17.668-2.471 2.935-4.617 6.3-7.424 8.91-1.369 1.357-4.281 1.206-5.024-.673-1.171-2.425.627-4.037 1.915-5.893 5.359-6.613 10.928-13.063 16.566-19.444 1.798-2.042 3.445-4.35 5.51-6.137 1.381-1.241 2.669-.533 4.142.058z" fill="#000"/><path d="M371.776 43.01c6.555.615 13.179 3.863 17.042 9.316 5.023 6.856 7.436 15.986 9.478 24.13 3.237 14.524 5.627 29.35 7.947 44.026 11.218-18.991 18.19-38.19 33.829-54.7 5.997-6.31 14.93-8.514 23.318-9.21 9.35.15 19.385 3.816 28.364 6.299 6.543 1.914 13.527 3.875 19.42 7.367 4.699 2.819 7.506 7.552 8.052 12.97 1.403 17.819-4.42 32.436-10.047 48.817 16.288-9.385 33.98-17.077 52.228-21.659 7.367-1.52 15.244-.163 21.288 4.443 6.763 5.081 12.993 11.195 17.657 18.283 2.552 3.91 4.408 8.016 4.025 12.819-.58 9.409-5.441 18.806-9.211 27.379-3.063 7.03-6.972 13.527-11.241 19.884 7.819-1.288 15.487-3.248 23.283-4.64 7.227-1.358 15.499-3.365 22.738-1.416 6.775 1.856 11.706 8.121 14.861 14.084 4.234 8.817 7.065 18.376 9.316 27.877.951 4.084 1.334 8.051-.569 11.938-3.086 6.624-9.176 10.278-15.313 13.689-5.198 2.749-10.082 5.986-14.966 9.269 5.267.87 11.984 1.624 16.323 4.977 4.687 3.84 4.652 10.673 4.629 16.195-.058 6.334-1.346 12.46-6.462 16.671-6.636 5.244-15.708 7.146-23.898 8.179 4.872 10.058 8.202 21.032 10.673 31.902 4.083 18.272 5.916 37.089 5.998 55.79-.638 8.329-.476 17.227-2.866 25.267-3.062 1.856-7.68.128-11.195.8-8.202 1.103-16.74 3.005-24.327 6.393-4.119 1.74-6.288 5-9.211 8.19-4.826 5.626-10.024 10.905-14.792 16.578-2.343 2.645-4.582 5.545-7.285 7.831-2.309 2.331-7.262-.464-7.054-3.516-.208-11.543.372-23.016-.789-34.571-2.157-22.738-7.146-46.381-17.088-67.054-5.441-11.125-13.144-22.9-23.817-29.594-4.617-3.016-9.687-3.991-15.046-4.756-2.274-.267-3.632-2.344-2.912-4.513 1.45-4.084 4.072-7.819 6.404-11.462 7.505-10.986 15.916-21.358 25.383-30.72-26.694-8.445-53.887-12.506-81.718-14.814-40.43-3.225-80.906-2.448-121.289 1.102-40.407 3.805-81.115 10.36-120.187 21.508-17.993 5.174-35.488 11.427-52.356 19.583-2.343 1.195-4.385 2.761-6.519 4.269-.662.615-1.578.638-2.75.07-1.775-1.451-1.09-4.409-.742-6.346a165.94 165.94 0 017.413-23.121c-12.379-4.803-24.536-10.151-37.054-14.559-7.193-2.669-14.733-5.604-19.977-11.451-3.944-4.269-5.661-9.582-6.52-15.232-1.241-8.132-1.717-17.401.963-25.29 2.181-6.334 7.471-11.079 13.829-13.005 9.269-2.784 18.584-3.028 28.179-2.448-5.128-6.415-12.831-13.48-14.189-21.833-.881-6.972 3.852-14.606 7.924-19.954 5-6.589 10.627-13.805 17.436-18.585 5.29-3.526 11.532-2.784 17.228-.73 18.364 6.601 36.021 15.812 51.625 27.552-6.822-12.39-12.379-25.511-17.251-38.771-1.972-5.603-3.341-12.297-.047-17.68 7.216-12.61 19.305-22.517 31.694-29.78 5.302-2.993 10.465-5.591 16.776-4.547 5 1.01 9.698 4.443 13.828 7.32 15.07 11.08 28.028 25.256 39.85 39.676 1.067-14.351-.348-27.82 2.656-42.124 1.601-7.633 5.406-15.093 11.52-20.093 5.116-4.35 11.891-6.334 18.179-8.376 6.357-2.088 12.819-2.784 19.397-3.828 9.397-1.404 18.364-2.726 27.935-2.065z" stroke="#000" stroke-width="7.5" stroke-linejoin="round"/><path d="M583.159 446.065c.893 2.402.685 3.481-.847 5.511-4.71 6.067-10.058 11.636-14.838 17.668-2.471 2.935-4.617 6.3-7.424 8.91-1.369 1.357-4.281 1.206-5.024-.673-1.171-2.425.627-4.037 1.915-5.893 5.359-6.613 10.928-13.063 16.566-19.444 1.798-2.042 3.445-4.35 5.51-6.137 1.381-1.241 2.669-.533 4.142.058z" stroke="#000" stroke-width="7.5" stroke-linejoin="round"/><path d="M369.445 49.797c5.673.208 11.172 2.575 14.328 7.459 4.454 6.88 6.531 15.778 8.387 23.69a637.296 637.296 0 018.063 47.61c.093 2.854 2.007 3.782 4.014 5.337 4.594-2.75 5.8-7.367 8.561-11.787 10.453-17.726 17.53-35.186 31.613-50.801 4.409-4.86 10.314-6.555 16.59-7.518 7.413-.8 15.557 1.961 22.645 3.98 7.889 2.447 16.764 4.292 23.921 8.468 4.142 2.309 5.163 7.332 5.209 11.683-.441 10.475-2.796 20.626-6.299 30.476-1.81 5.626-4.42 11.334-5.267 17.181-.151 2.216 1.16 5.673 3.91 5.499 2.204-.186 4.315-1.833 6.241-2.831 12.784-7.657 26.926-13.446 41.044-18.121 6.219-1.96 12.228-4.269 18.864-2.993 4.397.789 7.68 3.411 10.974 6.218 4.908 4.281 9.71 9.211 13.051 14.838 1.311 2.378 2.669 4.93 2.24 7.738-1.207 9.258-6.068 18.411-9.873 26.914-2.796 6.253-6.543 11.891-10.278 17.599-1.404 2.401-3.411 4.919-3.017 7.854 1.056 1.856 2.703 2.842 4.884 2.378 13.562-2.482 27.112-5.522 40.766-7.482 4.432-.708 9.687.278 12.936 3.573 6.078 5.522 8.677 14.698 11.241 22.285 1.508 5.638 4.362 12.46 3.318 18.307-1.903 5.406-8.19 8.712-12.877 11.38-6.265 3.26-11.926 7.39-17.912 11.114-1.764 1.102-2.993 2.668-4.235 4.304 1.288 1.775 1.856 3.945 4.142 4.548 6.647 2.297 13.434 2.076 19.745 5.719 1.334 5.673 1.578 11.485.209 17.181-.986 3.399-3.643 5.511-6.694 7.03-7.912 3.806-16.392 4.827-25.093 4.513-.36 1.021-.731 2.054-1.114 3.075 3.063 5.58 6.207 11.009 8.295 17.053 6.775 18.979 9.779 39.304 11.253 59.316.394 11.543.522 23.005-1.311 34.455-11.346.314-22.355 2.993-32.993 6.799-2.425.87-4.362 3.329-6.126 5.127-7.274 7.982-14.768 15.789-21.868 23.933.058-8.399.221-16.74-.812-25.081-1.334-19.734-5.023-39.618-11.647-58.284-4.316-12.007-10.174-24.13-18.179-34.142-7.32-9.13-16.416-16.427-28.202-18.561 9.095-14.363 20.104-27.692 32.807-39.003 2.135-2.39.743-5.441-2.181-6.172-25.568-9.002-52.9-13.399-79.803-16.114-40.813-3.84-82.124-3.411-122.971-.278-47.031 3.967-94.966 11.612-140.083 25.742-14.234 4.513-28.214 9.676-41.636 16.242 1.554-4.954 3.213-9.849 5.255-14.629.766-2.181 2.019-4.165 1.311-6.52-1.752-2.192-4.988-3.306-7.506-4.42-10.777-4.257-21.276-9.095-32.169-13.086-5.94-2.297-12.843-4.721-17.704-8.944-4.188-3.585-5.835-9.014-6.508-14.316-.73-6.636-1.253-13.91.754-20.371 1.392-4.2 4.374-7.158 8.504-8.678 9.188-3.097 18.364-3.086 27.923-2.39 2.959.105 5.697.836 8.307-.963.858-1.635 1.044-3.248-.058-4.826-4.745-6.995-11.764-13.086-15.615-20.615-2.506-5.974.835-11.404 4.188-16.172 5.023-6.543 10.394-13.99 17.1-18.863 3.352-2.471 7.169-1.566 10.8-.313 14.966 5.278 29.328 12.506 42.588 21.23 5.104 3.283 9.71 7.494 15.035 10.394 2.772 1.335 6.137 1.172 6.926-2.343-.882-4.559-3.4-8.91-5.395-13.063-6.009-11.438-10.893-23.504-15.244-35.65-1.253-4.559-3.271-8.422-.441-12.889 6.729-11.508 18.272-20.673 29.711-27.239 4.861-2.599 9.478-4.919 14.791-1.798 13.608 7.68 25.464 19.954 35.94 31.416 4.722 5.023 8.945 10.429 13.156 15.87 1.519 3.028 8.004 2.97 8.654-.731.847-15.998-.325-32.75 2.982-48.48 1.775-8.18 6.253-15.581 14.014-19.259 8.561-3.816 17.61-6.218 26.926-7.25 8.967-1.415 17.738-2.83 26.995-2.552z" fill="#0E0E0E"/></g></g><defs><clipPath id="prefix__clip0_1223_989"><path fill="#fff" d="M0 0h762v762H0z"/></clipPath><clipPath id="prefix__clip1_1223_989"><path fill="#fff" transform="translate(-61 -13)" d="M0 0h884v884H0z"/></clipPath></defs></svg>
